<svg width="348" height="348" xmlns="http://www.w3.org/2000/svg" fill="none">

 <g>
  <title>Layer 1</title>
  <path id="svg_1" stroke="#000" stroke-width="2" d="m6.079,5.776l336.913,0l0,337.67l-336.912,0l-0.001,-337.67z"/>
  <path id="svg_2" stroke="#000" stroke-width="2" d="m282.734,40.554c0,-8.376 6.966,-15.165 15.56,-15.165c4.126,0 8.084,1.597 11.001,4.441c2.918,2.844 4.558,6.702 4.558,10.724c0,8.376 -6.966,15.165 -15.56,15.165c-8.593,0 -15.559,-6.79 -15.559,-15.165z"/>
  <rect transform="rotate(45 206 206)" stroke-width="2" id="svg_3" height="172" width="172" y="120" x="120" stroke="#000" fill="#fff"/>
  <line stroke="#000" id="svg_4" y2="267" x2="267" y1="145" x1="145" stroke-width="2" fill="none"/>
  <line id="svg_5" y2="145" x2="267" y1="267" x1="145" stroke-width="2" stroke="#000" fill="none"/>
  <rect id="svg_6" height="42" width="133.66543" y="39.66469" x="30.66478" stroke-width="2" stroke="#000" fill="none"/>
  <ellipse ry="14" rx="14" id="svg_7" cy="61" cx="52.9979" stroke-width="2" stroke="#000" fill="none"/>
  <ellipse ry="14" rx="14" id="svg_8" cy="61" cx="143" stroke-width="2" stroke="#000" fill="none"/>
  <text xml:space="preserve" text-anchor="start" font-family="'Asap'" font-size="40" id="svg_9" y="72" x="79" stroke-width="0" stroke="#000" fill="#000000">↔</text>
 </g>
</svg>