<svg width="348" height="348" xmlns="http://www.w3.org/2000/svg" fill="none"><path stroke="#000" stroke-width="2" d="M6.079 5.776h336.913v337.67H6.08L6.079 5.776z"/><path stroke="#000" stroke-width="2" d="M282.734 40.554c0-8.376 6.966-15.165 15.56-15.165 4.126 0 8.084 1.597 11.001 4.441 2.918 2.844 4.558 6.702 4.558 10.724 0 8.376-6.966 15.165-15.56 15.165-8.593 0-15.559-6.79-15.559-15.165z"/><path stroke-width="2" stroke="#000" fill="#fff" d="M206 84.378 327.622 206 206 327.622 84.378 206z"/><path stroke="#000" stroke-width="2" d="m145 145 122 122M145 267l122-122M30.665 39.665H164.33v42H30.665z"/><circle cy="61" cx="52.998" stroke-width="2" stroke="#000" r="14"/><circle cy="61" cx="143" stroke-width="2" stroke="#000" r="14"/><text xml:space="preserve" font-family="'Asap'" font-size="40" y="72" x="79" stroke-width="0" stroke="#000" fill="#000">↔</text></svg>