# Blender v2.90.1 OBJ File: ''
# www.blender.org
mtllib untitled.mtl
o Cube
v 1.000000 1.000000 -1.000000
v 1.000000 -1.000000 -1.000000
v 1.000000 1.000000 1.000000
v 1.000000 -1.000000 1.000000
v -1.000000 1.000000 -1.000000
v -1.000000 -1.000000 -1.000000
v -1.000000 1.000000 1.000000
v -1.000000 -1.000000 1.000000
v 1.371489 1.000000 -1.000000
v 1.371489 -1.000000 -1.000000
v 1.371489 1.000000 1.000000
v 1.371489 -1.000000 1.000000
v 1.000000 1.000000 -1.403770
v 1.000000 -1.000000 -1.403770
v -1.000000 1.000000 -1.403770
v -1.000000 -1.000000 -1.403770
v 1.371489 1.000000 -1.403770
v 1.371489 -1.000000 -1.403770
v -1.378257 1.000000 -1.000000
v -1.378257 -1.000000 -1.000000
v -1.378257 1.000000 1.000000
v -1.378257 -1.000000 1.000000
v -1.378257 1.000000 -1.403770
v -1.378257 -1.000000 -1.403770
v 1.000000 1.000000 1.404518
v 1.000000 -1.000000 1.404518
v -1.000000 1.000000 1.404518
v -1.000000 -1.000000 1.404518
v 1.371489 1.000000 1.404518
v 1.371489 -1.000000 1.404518
v -1.378257 1.000000 1.404518
v -1.378257 -1.000000 1.404518
v 1.000000 -0.353656 -1.000000
v 1.000000 -0.353656 1.000000
v -1.000000 -0.353656 -1.000000
v -1.000000 -0.353656 1.000000
v 1.000000 -0.838490 -1.000000
v 1.000000 -0.838490 1.000000
v -1.000000 -0.838490 -1.000000
v -1.000000 -0.838490 1.000000
v -1.378257 1.000000 1.404518
v -1.378257 1.000000 1.000000
v 1.000000 1.000000 1.000000
v -1.000000 1.000000 1.000000
v 1.000000 1.000000 -1.000000
v -1.000000 1.000000 -1.000000
v 1.371489 1.000000 -1.000000
v 1.371489 1.000000 1.000000
v -1.000000 1.000000 -1.403770
v 1.000000 1.000000 -1.403770
v 1.371489 1.000000 -1.403770
v -1.378257 1.000000 -1.000000
v -1.378257 1.000000 -1.403770
v 1.000000 1.000000 1.404518
v -1.000000 1.000000 1.404518
v 1.371489 1.000000 1.404518
vt 0.625000 0.500000
vt 0.875000 0.500000
vt 0.875000 0.500000
vt 0.625000 0.500000
vt 0.125000 0.750000
vt 0.125000 0.750000
vt 0.125000 0.750000
vt 0.125000 0.750000
vt 0.625000 0.250000
vt 0.375000 0.250000
vt 0.375000 0.250000
vt 0.625000 0.250000
vt 0.125000 0.500000
vt 0.375000 0.500000
vt 0.375000 0.750000
vt 0.875000 0.750000
vt 0.875000 0.750000
vt 0.875000 0.750000
vt 0.875000 0.750000
vt 0.625000 0.500000
vt 0.375000 0.500000
vt 0.375000 0.500000
vt 0.625000 0.500000
vt 0.625000 0.750000
vt 0.375000 0.750000
vt 0.125000 0.500000
vt 0.375000 0.500000
vt 0.625000 0.500000
vt 0.625000 0.750000
vt 0.625000 0.750000
vt 0.625000 0.500000
vt 0.625000 0.500000
vt 0.875000 0.500000
vt 0.625000 0.500000
vt 0.875000 0.500000
vt 0.625000 0.500000
vt 0.125000 0.500000
vt 0.125000 0.500000
vt 0.375000 0.000000
vt 0.625000 0.000000
vt 0.625000 0.250000
vt 0.375000 0.250000
vt 0.875000 0.500000
vt 0.875000 0.500000
vt 0.375000 0.000000
vt 0.625000 0.000000
vt 0.375000 0.750000
vt 0.625000 0.750000
vt 0.625000 1.000000
vt 0.375000 1.000000
vt 0.375000 0.750000
vt 0.625000 0.750000
vt 0.625000 1.000000
vt 0.375000 1.000000
vt 0.625000 0.750000
vt 0.625000 0.750000
vt 0.875000 0.500000
vt 0.625000 0.500000
vt 0.875000 0.750000
vt 0.625000 0.750000
vt 0.625000 0.750000
vt 0.875000 0.750000
vt 0.875000 0.750000
vt 0.625000 0.750000
vt 0.875000 0.750000
vt 0.875000 0.750000
vt 0.875000 0.500000
vt 0.875000 0.500000
vt 0.875000 0.500000
vt 0.875000 0.750000
vn 0.0000 -0.0000 1.0000
vn 0.0000 -1.0000 0.0000
vn 0.0000 0.0000 -1.0000
vn 0.0000 1.0000 0.0000
vn 1.0000 -0.0000 0.0000
vn -1.0000 -0.0000 0.0000
usemtl Material
s off
f 45/1/1 46/2/1 35/3/1 33/4/1
f 22/5/2 8/6/2 28/7/2 32/8/2
f 49/9/3 16/10/3 24/11/3 53/12/3
f 6/13/2 2/14/2 4/15/2 8/6/2
f 7/16/4 21/17/4 31/18/4 27/19/4
f 47/20/5 10/21/5 18/22/5 51/23/5
f 10/21/5 47/20/5 48/24/5 12/25/5
f 2/14/2 6/13/2 16/26/2 14/27/2
f 4/15/2 2/14/2 10/21/2 12/25/2
f 1/28/4 3/29/4 11/30/4 9/31/4
f 16/10/3 49/9/3 50/32/3 14/27/3
f 14/27/3 50/32/3 51/23/3 18/22/3
f 5/33/4 1/28/4 13/34/4 15/35/4
f 10/21/2 2/14/2 14/27/2 18/22/2
f 1/28/4 9/31/4 17/36/4 13/34/4
f 16/26/2 6/13/2 20/37/2 24/38/2
f 22/39/6 42/40/6 52/41/6 20/42/6
f 20/42/6 52/41/6 53/12/6 24/11/6
f 6/13/2 8/6/2 22/5/2 20/37/2
f 5/33/4 15/35/4 23/43/4 19/44/4
f 7/16/4 5/33/4 19/44/4 21/17/4
f 42/40/6 22/39/6 32/45/6 41/46/6
f 26/47/1 54/48/1 55/49/1 28/50/1
f 54/48/1 26/47/1 30/51/1 56/52/1
f 28/50/1 55/49/1 41/53/1 32/54/1
f 8/6/2 4/15/2 26/47/2 28/7/2
f 11/30/4 3/29/4 25/55/4 29/56/4
f 3/29/4 7/16/4 27/19/4 25/55/4
f 12/25/5 48/24/5 56/52/5 30/51/5
f 4/15/2 12/25/2 30/51/2 26/47/2
f 33/4/1 35/3/1 39/57/1 37/58/1
f 44/59/3 43/60/3 34/61/3 36/62/3
f 46/2/5 44/59/5 36/62/5 35/3/5
f 43/60/6 45/1/6 33/4/6 34/61/6
f 37/58/4 39/57/4 40/63/4 38/64/4
f 34/61/6 33/4/6 37/58/6 38/64/6
f 35/3/5 36/62/5 40/63/5 39/57/5
f 36/62/3 34/61/3 38/64/3 40/63/3
f 31/18/1 21/17/1 42/65/1 41/66/1
f 7/16/1 3/29/1 43/60/1 44/59/1
f 3/29/1 1/28/1 45/1/1 43/60/1
f 5/33/1 7/16/1 44/59/1 46/2/1
f 1/28/1 5/33/1 46/2/1 45/1/1
f 9/31/1 11/30/1 48/24/1 47/20/1
f 15/35/1 13/34/1 50/32/1 49/67/1
f 13/34/1 17/36/1 51/23/1 50/32/1
f 17/36/1 9/31/1 47/20/1 51/23/1
f 21/17/1 19/44/1 52/68/1 42/65/1
f 19/44/1 23/43/1 53/69/1 52/68/1
f 23/43/1 15/35/1 49/67/1 53/69/1
f 25/55/1 27/19/1 55/70/1 54/48/1
f 29/56/1 25/55/1 54/48/1 56/52/1
f 27/19/1 31/18/1 41/66/1 55/70/1
f 11/30/1 29/56/1 56/52/1 48/24/1
